<?xml version="1.0" encoding="UTF-8"?>
<svg id="careers-icon" data-name="Careers Icon" xmlns="http://www.w3.org/2000/svg" viewBox="0 0 154.63 112.05" aria-hidden="true">
  <defs>
    <style>
      .careers-icon {
        fill: black;
        stroke: black;
        stroke-miterlimit: 10;
        stroke-width: 2px;
      }
      .careers-icon-plus {
        stroke-width: 3px;
        stroke: black;
      }
    </style>
  </defs>
    <g>
      <g>
        <g>
          <g>
            <path class="careers-icon" d="m120.01,112.05H1.88c-.53,0-1.03-.22-1.39-.61-.36-.39-.53-.91-.48-1.44l3.13-33.65c.49-5.26,4.06-9.68,9.1-11.26l27.75-8.71c.99-.31,2.04.24,2.35,1.23.31.99-.24,2.04-1.23,2.35l-27.75,8.71c-3.59,1.13-6.14,4.28-6.49,8.03l-2.94,31.6h114.02l-2.94-31.6c-.35-3.75-2.9-6.9-6.49-8.03l-27.75-8.71c-.99-.31-1.54-1.36-1.23-2.35.31-.99,1.36-1.54,2.35-1.23l27.75,8.71c5.04,1.58,8.61,6,9.1,11.26l3.13,33.65c.05.53-.13,1.05-.48,1.44-.36.39-.86.61-1.39.61Z"/>
            <path class="careers-icon" d="m60.94,72.1c-.33,0-.66-.09-.95-.26l-20.37-12.02c-.89-.53-1.19-1.68-.66-2.57.53-.89,1.68-1.19,2.57-.66l19.42,11.46,19.42-11.46c.89-.53,2.04-.23,2.57.66.53.89.23,2.04-.66,2.57l-20.37,12.02c-.29.17-.62.26-.95.26Z"/>
          </g>
          <path class="careers-icon" d="m60.94,57.96c-14.18,0-25.6-17.87-25.6-32.66S46.35,0,60.94,0s25.6,10.88,25.6,25.3-11.42,32.66-25.6,32.66Zm0-54.21c-12.45,0-21.85,9.26-21.85,21.55,0,13.01,10.08,28.9,21.85,28.9s21.85-15.89,21.85-28.9c0-12.29-9.39-21.55-21.85-21.55Z"/>
        </g>
        <g>
          <path class="careers-icon" d="m64.65,81.06h-7.41c-.77,0-1.46-.47-1.75-1.19l-5.4-13.73c-.38-.96.09-2.05,1.06-2.43.96-.38,2.05.1,2.43,1.06l4.93,12.54h4.85l4.93-12.54c.38-.96,1.47-1.44,2.43-1.06.96.38,1.44,1.47,1.06,2.43l-5.4,13.73c-.28.72-.97,1.19-1.75,1.19Z"/>
          <path class="careers-icon" d="m51.84,112.05c-.11,0-.22,0-.32-.03-1.02-.18-1.7-1.15-1.53-2.17l5.4-30.99c.16-.9.94-1.55,1.85-1.55h7.41c.91,0,1.69.66,1.85,1.55l5.4,30.99c.18,1.02-.51,1.99-1.53,2.17-1.02.18-1.99-.51-2.17-1.53l-5.13-29.44h-4.25l-5.13,29.44c-.16.91-.95,1.55-1.85,1.55Z"/>
        </g>
      </g>
      <g>
        <path class="careers-icon" d="m23.55,112.05c-.07,0-.13,0-.2-.01-1.03-.11-1.78-1.03-1.67-2.06l2.27-21.64c.11-1.03,1.03-1.78,2.06-1.67,1.03.11,1.78,1.03,1.67,2.06l-2.27,21.64c-.1.96-.92,1.68-1.86,1.68Z"/>
        <path class="careers-icon" d="m98.34,112.05c-.95,0-1.76-.72-1.86-1.68l-2.27-21.64c-.11-1.03.64-1.95,1.67-2.06,1.03-.11,1.95.64,2.06,1.67l2.27,21.64c.11,1.03-.64,1.95-1.67,2.06-.07,0-.13.01-.2.01Z"/>
      </g>
    </g>
    <line class="careers-icon-plus" x1="133.7" y1="8.44" x2="133.7" y2="45.55"/>
    <line class="careers-icon-plus" x1="154.63" y1="26.98" x2="112.33" y2="26.98"/>
</svg>