<?xml version="1.0" encoding="UTF-8"?>
<svg id="ductless-icon" data-name="Ductless Icon" xmlns="http://www.w3.org/2000/svg" viewBox="0 0 283.5 211.5" aria-hidden="true">
  <defs>
    <style>
    <!--cut and paste this part into styles.css to avoid bloat IMPORTANT - fill and stroke must be same color on this one-->
      .ductless-icon {
        fill: none;
        stroke: black;
        stroke-linecap: round;
        stroke-linejoin: round;
        stroke-width: 13.5px;
      }
    </style>
  </defs>
    <g>
      <path class="ductless-icon" d="m6.75,24.75C6.75,14.8,14.8,6.75,24.75,6.75"/>
      <path class="ductless-icon" d="m276.75,24.75c0-9.95-8.05-18-18-18"/>
      <path class="ductless-icon" d="m6.75,96.75c0,19.9,16.1,36,36,36"/>
      <path class="ductless-icon" d="m276.75,96.75c0,19.9-16.1,36-36,36"/>
      <line class="ductless-icon" x1="24.75" y1="6.75" x2="258.75" y2="6.75"/>
      <line class="ductless-icon" x1="276.75" y1="24.75" x2="276.75" y2="96.75"/>
      <line class="ductless-icon" x1="6.75" y1="24.75" x2="6.75" y2="96.75"/>
      <line class="ductless-icon" x1="42.75" y1="132.75" x2="240.75" y2="132.75"/>
      <line class="ductless-icon" x1="240.75" y1="96.75" x2="240.75" y2="132.75"/>
      <line class="ductless-icon" x1="42.75" y1="96.75" x2="42.75" y2="132.75"/>
      <line class="ductless-icon" x1="240.75" y1="96.75" x2="42.75" y2="96.75"/>
      <line class="ductless-icon" x1="43.75" y1="28.75" x2="61.75" y2="28.75"/>
      <line class="ductless-icon" x1="141.75" y1="168.75" x2="141.75" y2="204.75"/>
      <path class="ductless-icon" d="m69.75,168.75c0,19.9-16.1,36-36,36"/>
      <path class="ductless-icon" d="m213.75,168.75c0,19.9,16.1,36,36,36"/>
      <path class="ductless-icon" d="m105.75,168.75c0,19.9-1.59,27.79-9,36"/>
      <path class="ductless-icon" d="m177.75,168.75c0,19.9,1.59,27.79,9,36"/>
    </g>
</svg>