<?xml version="1.0" encoding="utf-8"?>
<!-- Generator: Adobe Illustrator 28.1.0, SVG Export Plug-In . SVG Version: 6.00 Build 0)  -->
<svg version="1.1" id="Layer_1" xmlns="http://www.w3.org/2000/svg" xmlns:xlink="http://www.w3.org/1999/xlink" x="0px" y="0px"
	 viewBox="0 0 1684 1728" style="enable-background:new 0 0 1684 1728;" xml:space="preserve">
<style type="text/css">
	.st0{display:none;fill:none;stroke:#FFFFFF;stroke-miterlimit:10;}
	.st1{fill:#5B727E;}
	.st2{fill:none;stroke:#5B727E;stroke-miterlimit:10;}
	.st3{fill:#FFFFFF;}
	.st4{fill:#F89520;}
	.st5{display:none;}
	.st6{display:inline;fill:#5C6F79;}
	.st7{display:inline;fill:#F7911F;}
	.st8{display:inline;}
	.st9{fill:#5C6F79;}
	.st10{fill:#F7911F;}
</style>
<image style="display:none;overflow:visible;" width="640" height="640" xlink:href="201666B7.jpg"  transform="matrix(1.9824 0 0 1.9824 -3241.75 -1460.9097)">
</image>
<path class="st0" d="M-2601.7-189.6c39.7,0,527.6-241,527.6-241c11-5,18.1-16.1,18.1-28.2v-897.4c0-57.8-46.9-104.7-104.7-104.7
	h-883.6c-61.7,0-111.7,50-111.7,111.7v887.8c0,12.1,7.1,23.1,18.1,28.1C-3137.9-433.3-2641.5-189.6-2601.7-189.6z"/>
<path class="st1" d="M845.3,1472.9c39.7,0,527.6-241,527.6-241c11-5,18.1-16.1,18.1-28.2V306.3c0-57.8-46.9-104.7-104.7-104.7H402.7
	c-61.7,0-111.7,50-111.7,111.7v887.8c0,12.1,7.1,23.1,18.1,28.1C309.1,1229.2,805.6,1472.9,845.3,1472.9z"/>
<path class="st2" d="M-2627-1407.5h469c27.6,0,50,22.4,50,50v664c0,0,2,14.7-8,27.3c-10,12.7-38.7,44-38.7,44l6.1,56.8
	c1.8,16.7-14.7,29.3-30.3,23.3l-53.8-20.8l-54,23.3l0,3.1c-0.3,22-22.5,36.8-42.9,28.7l-68.3-27.2l-78.7,32l-2,5.2
	c-6.9,18.5-27.9,27.3-45.9,19.3l-78.8-35.2l-80,35.1c-18.7,8.2-40.4-0.6-48.1-19.5l-2.6-6.3l-78-32l-68.4,29.6
	c-20.7,9-43.6-7.3-41.9-29.8l0.3-4.5l-54.7-24.7l-48.1,23.2c-17.3,10.3-36.7-3.9-35.9-24l4.9-55.5l-37-42.5
	c-5.6-6.4-8.6-14.6-8.7-23l-3.1-673.8c-0.1-25.6,20.6-46.4,46.2-46.4H-2627z"/>
<path class="st3" d="M820.2,255h469c27.6,0,50,22.4,50,50v664c0,0,2,14.7-8,27.3c-10,12.7-38.7,44-38.7,44l6.1,56.8
	c1.8,16.7-14.7,29.3-30.3,23.3l-53.8-20.8l-54,23.3l0,3.1c-0.3,22-22.5,36.8-42.9,28.7l-68.3-27.2l-78.7,32l-2,5.2
	c-6.9,18.5-27.9,27.3-45.9,19.3l-78.8-35.2l-80,35.1c-18.7,8.2-40.4-0.6-48.1-19.5l-2.6-6.3l-78-32l-68.4,29.6
	c-20.7,9-43.6-7.3-41.9-29.8l0.3-4.5l-54.7-24.7l-48.1,23.2c-17.3,10.3-36.7-3.9-35.9-24l4.9-55.5l-37-42.5
	c-5.6-6.4-8.6-14.6-8.7-23l-3.1-673.8c-0.1-25.6,20.6-46.4,46.2-46.4H820.2z"/>
<path class="st4" d="M370.9,978.1l61-16.4l35.5-53.5c2.4-3.7,7.8-3.6,10.2,0.1l23,36.1l-10.5,6.5c-17.4,10.8-19,33.9-5.1,48.9
	l46.2,51L529,1103l-57.5-23.5l-54.8,24.1c-6.3,2.8-13.3-2.2-12.8-9l4.4-59.4l-40.8-45.8C364,985.6,365.9,979.4,370.9,978.1z"/>
<path class="st4" d="M587.3,947l39.1-67.5c4.6-8,16.2-8,20.7,0.1l31.7,55.4l-7.8,4.7c-20,12.1-24.1,39.5-8.5,56.9l55.8,62.4
	l-5.5,76.5l-77-31.1l-74.2,29.9c-7,2.8-14.6-2.7-13.9-10.3l6.6-80.6l-51.8-57.7c-6.2-6.9-2.7-17.9,6.3-20L587.3,947z"/>
<path class="st4" d="M783.3,938l47.2-79.6c5.9-10,20.4-9.8,26.1,0.2l45.2,79.4l93,20.2c9.7,2.1,13.5,13.9,6.8,21.3l-64.8,71.5
	l10.1,90.5c1.3,11.8-10.6,20.7-21.6,16l-84.1-36l-86.8,38.1c-8.6,3.8-18-3.1-17.1-12.4l9-96.2l-61.7-66.9
	c-7.1-7.7-3.4-20.3,6.8-22.8L783.3,938z"/>
<path class="st4" d="M1057.1,878.9l40.2,69.1l81.2,19.9c5.8,1.4,8.1,8.5,4.1,13l-53.2,60.1l6.6,83.1c0.6,8.2-7.6,14.2-15.2,11
	l-74.4-30.7l-74.3,30.9l-6.7-76.7l57.7-66c12.9-14.7,10.9-37.2-4.3-49.5l-11.4-9.2l32.1-55.2
	C1043.4,872.1,1053.2,872.1,1057.1,878.9z"/>
<path class="st4" d="M1184.5,944.5l18.8-33.4c3.8-6.8,13.5-7,17.5-0.3l31.4,51.2l57.2,13.2c6.5,1.5,9,9.3,4.6,14.3l-38.9,44.5
	l4.7,59.1c0.6,7.6-7.2,13.1-14.1,9.9l-52-23.5l-56.5,22l-3-50l48.5-58.3c9.8-11.8,7.7-29.3-4.6-38.5L1184.5,944.5z"/>
<g class="st5">
	<path class="st6" d="M-1232-402.7l-33.3-32h-43c-7.5,0-13.7-6.1-13.7-13.7v-34.3l38-38l47.7,47.7h33v28c0,5.7-4.6,10.4-10.4,10.4
		h-17.6L-1232-402.7z"/>
	<polygon class="st7" points="-1333.2,-483.6 -1351,-483.6 -1291.9,-542.7 -1231.5,-542.7 -1172.7,-483.9 -1232.8,-483.9 
		-1282.8,-534 	"/>
	<path class="st8" d="M-1309.5-267.1h-35.5v-24.1h98.5v24.1h-35.5v99.5h-27.4V-267.1z"/>
	<path class="st8" d="M-1183.9-294.4c36.2,0,62.6,25.3,62.6,65s-26.4,65-62.6,65s-62.6-25.3-62.6-65S-1220.1-294.4-1183.9-294.4z
		 M-1183.9-189.6c21.8,0,36.1-16.8,36.1-39.8c0-23.1-14.3-39.8-36.1-39.8s-36.1,16.8-36.1,39.8
		C-1220-206.4-1205.7-189.6-1183.9-189.6z"/>
	<path class="st8" d="M-1107.9-291.2h47.4c26.5,0,48.5,8.2,48.5,37.5c0,29-20.4,37.9-47.3,37.9h-20.6v48.2h-28.1V-291.2z
		 M-1079.8-238.8h18.8c9.9,0,19.8-3.3,19.8-14.8c0-12.7-13.3-14.5-24.2-14.5h-14.4V-238.8z"/>
	<path class="st8" d="M-969.2-291.2h50.1c26.5,0,48.8,8.7,48.8,37.5c0,17.3-9.7,30.7-28,33.9l32.9,52.2h-34.2l-27.1-49.4h-14.1v49.4
		h-28.5V-291.2z M-940.7-240.1h16.8c10.4,0,24-0.3,24-13.8c0-12.4-11.7-14.3-22.1-14.3h-18.7V-240.1z"/>
	<path class="st8" d="M-819.2-291.2h22.2l53.1,123.6h-30.3l-10.5-26.2h-47.4l-10.2,26.2h-29.6L-819.2-291.2z M-808.9-255.3
		l-14.8,38.4h29.8L-808.9-255.3z"/>
	<path class="st8" d="M-725.2-267.1H-762v-24.1h102v24.1h-36.8v99.5h-28.4V-267.1z"/>
	<path class="st8" d="M-650.5-291.2h84.6v25.1h-57.2v23.1h54v25.1h-54v25.1h60.3v25.1h-87.8V-291.2z"/>
	<path class="st8" d="M-548-291.2h40.4c39.4,0,72.4,16.9,72.4,62.2c0,40-32.3,61.5-68.7,61.5h-44V-291.2z M-521.1-192.7h14
		c25,0,43.9-9.6,43.9-37.7c0-24.3-19.2-35.6-42-35.6h-15.9V-192.7z"/>
	<path class="st8" d="M-1157.7-527.3h23.5v34.9h33.2v-34.9h22.2v93.5h-22.2v-40.4h-33.2v40.4h-23.5V-527.3z"/>
	<path class="st8" d="M-1034.7-506.1c21.7,0,39.1,14.5,39.1,36.9c0,22.5-17.4,36.9-39.1,36.9c-21.7,0-39.1-14.5-39.1-36.9
		C-1073.8-491.6-1056.4-506.1-1034.7-506.1z M-1034.7-451.3c10.9,0,17.4-7.2,17.4-17.8s-6.5-17.8-17.4-17.8
		c-10.9,0-17.4,7.2-17.4,17.8S-1045.6-451.3-1034.7-451.3z"/>
	<path class="st8" d="M-992.9-502.4h19.8v9.3h0.3c2.7-5.4,9.5-11,19.5-11c9.3,0,17,4,20.6,12.3c4.8-8.8,11.3-12.3,21.1-12.3
		c18.1,0,23.6,13.1,23.6,29.8v40.5h-20.6v-40c0-6.4-2.3-11.7-9.1-11.7c-9.5,0-12.5,6.9-12.5,15.4v36.3h-20.6v-36.3
		c0-5.1,0.3-15.4-9.2-15.4c-10.7,0-12.4,8.6-12.4,17.5v34.2h-20.6V-502.4z"/>
	<path class="st8" d="M-814.5-445.7c-6.8,8.6-17.9,13.5-28.9,13.5c-21.1,0-38.1-14.1-38.1-35.9c0-21.8,16.9-35.9,38.1-35.9
		c19.7,0,32.1,14.1,32.1,35.9v6.6h-49.1c1.7,8,7.8,13.3,15.9,13.3c6.9,0,11.6-3.5,15.1-8.3L-814.5-445.7z M-832.4-475.9
		c0.1-7-5.4-13-13-13c-9.3,0-14.4,6.3-14.9,13H-832.4z"/>
	<path class="st8" d="M-773.8-525h7.6l33.3,90h-8.3l-8.6-23.9h-41.9l-8.9,23.9h-7.7L-773.8-525z M-770.4-515.8l-18.4,49.3h36.3
		L-770.4-515.8z"/>
	<path class="st8" d="M-682.4-444.7h-0.2c-1.1,1.9-2.5,3.6-4.2,5c-1.7,1.4-3.5,2.6-5.5,3.5c-2,0.9-4.1,1.6-6.2,2.1
		c-2.2,0.4-4.3,0.7-6.4,0.7c-4.3,0-8.2-0.7-11.9-2.2c-3.6-1.5-6.7-3.5-9.3-6.1c-2.6-2.6-4.6-5.7-6-9.3c-1.5-3.6-2.2-7.5-2.2-11.8
		c0-4.3,0.7-8.2,2.2-11.8c1.5-3.6,3.5-6.7,6-9.3c2.6-2.6,5.7-4.7,9.3-6.1c3.6-1.5,7.6-2.2,11.9-2.2c2.1,0,4.2,0.2,6.4,0.7
		c2.2,0.4,4.3,1.1,6.2,2.1c2,0.9,3.8,2.1,5.5,3.5c1.7,1.4,3.1,3.1,4.2,5h0.2v-45.4h7.3v91.4h-7.3V-444.7z M-681.6-462.9
		c0-3.1-0.6-6.1-1.8-8.9c-1.2-2.8-2.9-5.2-5-7.3c-2.1-2.1-4.6-3.7-7.4-4.9c-2.8-1.2-5.9-1.8-9.2-1.8c-3.4,0-6.5,0.6-9.2,1.8
		c-2.7,1.2-5.1,2.8-7,4.9c-1.9,2.1-3.4,4.5-4.4,7.3c-1,2.8-1.5,5.7-1.5,8.9c0,3.1,0.5,6.1,1.5,8.9c1,2.8,2.5,5.2,4.4,7.3
		c1.9,2.1,4.3,3.7,7,4.9c2.7,1.2,5.8,1.8,9.2,1.8c3.3,0,6.4-0.6,9.2-1.8c2.8-1.2,5.3-2.8,7.4-4.9c2.1-2.1,3.7-4.5,5-7.3
		C-682.2-456.7-681.6-459.7-681.6-462.9z"/>
	<path class="st8" d="M-668.3-499.3h9.5l21.4,55.3l20.9-55.3h8.5l-25.3,64.3h-8.6L-668.3-499.3z"/>
	<path class="st8" d="M-604.2-520.4c0-2,0.7-3.7,2.1-5.1c1.4-1.4,3.1-2.1,5.1-2.1c2,0,3.7,0.7,5.1,2.1c1.4,1.4,2.1,3.1,2.1,5.1
		c0,2-0.7,3.7-2.1,5.1c-1.4,1.4-3.1,2.1-5.1,2.1c-2,0-3.7-0.7-5.1-2.1C-603.5-516.7-604.2-518.4-604.2-520.4z"/>
	<rect x="-601.9" y="-499.3" class="st8" width="9.6" height="64.3"/>
	<path class="st8" d="M-578.9-451.5c1.8,3.4,4.3,6,7.8,7.8c3.4,1.8,7,2.7,10.8,2.7c1.8,0,3.5-0.3,5.3-0.8c1.8-0.6,3.3-1.3,4.7-2.4
		c1.4-1,2.5-2.2,3.4-3.7c0.9-1.4,1.3-3.1,1.3-4.9c0-3-0.9-5.2-2.8-6.7c-1.9-1.5-4.2-2.6-7-3.5c-2.8-0.8-5.8-1.5-9.1-2.1
		c-3.3-0.6-6.4-1.5-9.1-2.8c-2.8-1.2-5.1-3-7-5.2c-1.9-2.2-2.8-5.4-2.8-9.4c0-3.1,0.6-5.9,1.9-8.2c1.3-2.3,3-4.2,5.1-5.8
		c2.1-1.5,4.4-2.7,7-3.4c2.6-0.7,5.2-1.1,7.9-1.1c5.3,0,9.8,1,13.7,2.9c3.8,1.9,6.8,5,8.9,9.1l-7.5,4.4c-1.6-3-3.5-5.2-5.9-6.7
		c-2.4-1.5-5.4-2.3-9.2-2.3c-1.5,0-3,0.2-4.6,0.7c-1.6,0.5-3.1,1.1-4.4,1.9c-1.3,0.8-2.4,1.9-3.3,3.2c-0.9,1.3-1.3,2.8-1.3,4.4
		c0,2.9,0.9,5,2.8,6.4c1.9,1.4,4.2,2.5,7,3.3c2.8,0.8,5.8,1.5,9.1,2c3.3,0.6,6.4,1.5,9.1,2.7c2.8,1.2,5.1,3,7,5.4
		c1.9,2.4,2.8,5.7,2.8,10c0,3.3-0.6,6.2-1.9,8.7c-1.2,2.4-3,4.5-5.1,6.2c-2.2,1.7-4.6,2.9-7.4,3.7c-2.8,0.8-5.7,1.2-8.7,1.2
		c-5.5,0-10.6-1.1-15.2-3.2c-4.6-2.1-8.1-5.4-10.6-9.8L-578.9-451.5z"/>
	<path class="st8" d="M-533.8-466.4c0-4.8,0.8-9.2,2.3-13.2c1.5-4,3.6-7.5,6.4-10.4c2.7-2.9,6-5.2,9.8-6.8c3.8-1.6,8-2.4,12.5-2.4
		c4.5,0,8.6,0.8,12.4,2.4c3.8,1.6,7,3.9,9.8,6.8c2.8,2.9,4.9,6.4,6.4,10.4c1.5,4,2.3,8.4,2.3,13.2c0,4.8-0.8,9.2-2.3,13.2
		c-1.5,4-3.7,7.5-6.4,10.4c-2.8,2.9-6,5.2-9.8,6.8c-3.8,1.6-7.9,2.4-12.4,2.4c-4.5,0-8.6-0.8-12.5-2.4c-3.8-1.6-7.1-3.9-9.8-6.8
		c-2.7-2.9-4.8-6.4-6.4-10.4C-533-457.2-533.8-461.6-533.8-466.4z M-526.1-466.4c0,3.5,0.5,6.8,1.6,10c1.1,3.1,2.6,5.8,4.6,8.1
		c2,2.3,4.5,4.1,7.4,5.5c2.9,1.4,6.1,2,9.7,2c3.6,0,6.8-0.7,9.7-2c2.9-1.4,5.3-3.2,7.4-5.5c2-2.3,3.6-5,4.6-8.1
		c1.1-3.1,1.6-6.4,1.6-10c0-3.5-0.5-6.8-1.6-10c-1.1-3.1-2.6-5.8-4.6-8.1s-4.5-4.1-7.4-5.5c-2.9-1.4-6.1-2-9.7-2
		c-3.6,0-6.8,0.7-9.7,2c-2.9,1.4-5.3,3.2-7.4,5.5s-3.6,5-4.6,8.1C-525.6-473.2-526.1-469.9-526.1-466.4z"/>
	<path class="st8" d="M-465.7-480.5c0-1.2,0-2.6-0.1-4.3c-0.1-1.7-0.2-3.4-0.2-5.1c0-1.7-0.1-3.4-0.2-4.9c-0.1-1.5-0.1-2.7-0.1-3.5
		h8.6c0.1,2.4,0.2,4.7,0.2,6.9c0,2.2,0.2,3.6,0.4,4.2c2.2-3.7,5-6.8,8.5-9.2c3.5-2.4,7.7-3.6,12.7-3.6c0.9,0,1.7,0.1,2.5,0.2
		c0.8,0.1,1.7,0.3,2.5,0.5l-1,8.1c-1.2-0.4-2.3-0.5-3.3-0.5c-3.7,0-7,0.6-9.7,1.7c-2.7,1.1-5,2.7-6.8,4.7c-1.8,2-3.1,4.4-4,7.1
		c-0.9,2.7-1.3,5.6-1.3,8.7v34.5h-8.6V-480.5z"/>
</g>
<path class="st9" d="M494.7,506.3l-33.3-32h-43c-7.5,0-13.7-6.1-13.7-13.7v-34.3l38-38l47.7,47.7h33v28c0,5.7-4.6,10.4-10.4,10.4
	h-17.6L494.7,506.3z"/>
<polygon class="st10" points="393.5,425.5 375.7,425.5 434.8,366.4 495.2,366.4 554,425.2 494,425.2 443.9,375.1 "/>
<path class="st4" d="M417.2,641.9h-35.5v-24.1h98.5v24.1h-35.5v99.5h-27.4V641.9z"/>
<path class="st4" d="M542.8,614.7c36.2,0,62.6,25.3,62.6,65s-26.4,65-62.6,65s-62.6-25.3-62.6-65S506.6,614.7,542.8,614.7z
	 M542.8,719.5c21.8,0,36.1-16.8,36.1-39.8c0-23.1-14.3-39.8-36.1-39.8s-36.1,16.8-36.1,39.8C506.7,702.7,521,719.5,542.8,719.5z"/>
<path class="st4" d="M618.8,617.8h47.4c26.5,0,48.5,8.2,48.5,37.5c0,29-20.4,37.9-47.3,37.9h-20.6v48.2h-28.1V617.8z M646.9,670.2
	h18.8c9.9,0,19.8-3.3,19.8-14.8c0-12.7-13.3-14.5-24.2-14.5h-14.4V670.2z"/>
<path class="st4" d="M757.5,617.8h50.1c26.5,0,48.8,8.7,48.8,37.5c0,17.3-9.7,30.7-28,33.9l32.9,52.2h-34.2l-27.1-49.4h-14.1v49.4
	h-28.5V617.8z M786.1,669h16.8c10.4,0,24-0.3,24-13.8c0-12.4-11.7-14.3-22.1-14.3h-18.7V669z"/>
<path class="st4" d="M907.5,617.8h22.2l53.1,123.6h-30.3L942,715.3h-47.4l-10.2,26.2h-29.6L907.5,617.8z M917.9,653.8L903,692.2
	h29.8L917.9,653.8z"/>
<path class="st4" d="M1001.5,641.9h-36.8v-24.1h102v24.1h-36.8v99.5h-28.4V641.9z"/>
<path class="st4" d="M1076.2,617.8h84.6V643h-57.2V666h54v25.1h-54v25.1h60.3v25.1h-87.8V617.8z"/>
<path class="st4" d="M1178.7,617.8h40.4c39.4,0,72.4,16.9,72.4,62.2c0,40-32.3,61.5-68.7,61.5h-44V617.8z M1205.7,716.3h14
	c25,0,43.9-9.6,43.9-37.7c0-24.3-19.2-35.6-42-35.6h-15.9V716.3z"/>
<path class="st4" d="M569,381.8h23.5v34.9h33.2v-34.9H648v93.5h-22.2v-40.4h-33.2v40.4H569V381.8z"/>
<path class="st4" d="M692,403c21.7,0,39.1,14.5,39.1,36.9c0,22.5-17.4,36.9-39.1,36.9c-21.7,0-39.1-14.5-39.1-36.9
	C652.9,417.5,670.3,403,692,403z M692,457.8c10.9,0,17.4-7.2,17.4-17.8c0-10.6-6.5-17.8-17.4-17.8c-10.9,0-17.4,7.2-17.4,17.8
	C674.6,450.5,681.2,457.8,692,457.8z"/>
<path class="st4" d="M733.8,406.7h19.8v9.3h0.3c2.7-5.4,9.5-11,19.5-11c9.3,0,17,4,20.6,12.3c4.8-8.8,11.3-12.3,21.1-12.3
	c18.1,0,23.6,13.1,23.6,29.8v40.5h-20.6v-40c0-6.4-2.3-11.7-9.1-11.7c-9.5,0-12.5,6.9-12.5,15.4v36.3H776V439
	c0-5.1,0.3-15.4-9.2-15.4c-10.7,0-12.4,8.6-12.4,17.5v34.2h-20.6V406.7z"/>
<path class="st4" d="M912.2,463.4c-6.8,8.6-17.9,13.5-28.9,13.5c-21.1,0-38.1-14.1-38.1-35.9c0-21.8,16.9-35.9,38.1-35.9
	c19.7,0,32.1,14.1,32.1,35.9v6.6h-49.1c1.7,8,7.8,13.3,15.9,13.3c6.9,0,11.6-3.5,15.1-8.3L912.2,463.4z M894.3,433.2
	c0.1-7-5.4-13-13-13c-9.3,0-14.4,6.3-14.9,13H894.3z"/>
<path class="st9" d="M952.9,384.1h7.6l33.3,90h-8.3l-8.6-23.9H935l-8.9,23.9h-7.7L952.9,384.1z M956.3,393.3l-18.4,49.3h36.3
	L956.3,393.3z"/>
<path class="st9" d="M1044.4,464.4h-0.2c-1.1,1.9-2.5,3.6-4.2,5c-1.7,1.4-3.5,2.6-5.5,3.5c-2,0.9-4.1,1.6-6.2,2.1
	c-2.2,0.4-4.3,0.7-6.4,0.7c-4.3,0-8.2-0.7-11.9-2.2c-3.6-1.5-6.7-3.5-9.3-6.1c-2.6-2.6-4.6-5.7-6-9.3c-1.5-3.6-2.2-7.5-2.2-11.8
	c0-4.3,0.7-8.2,2.2-11.8c1.5-3.6,3.5-6.7,6-9.3c2.6-2.6,5.7-4.7,9.3-6.1c3.6-1.5,7.6-2.2,11.9-2.2c2.1,0,4.2,0.2,6.4,0.7
	c2.2,0.4,4.3,1.1,6.2,2.1c2,0.9,3.8,2.1,5.5,3.5c1.7,1.4,3.1,3.1,4.2,5h0.2v-45.4h7.3v91.4h-7.3V464.4z M1045.1,446.2
	c0-3.1-0.6-6.1-1.8-8.9c-1.2-2.8-2.9-5.2-5-7.3c-2.1-2.1-4.6-3.7-7.4-4.9c-2.8-1.2-5.9-1.8-9.2-1.8c-3.4,0-6.5,0.6-9.2,1.8
	c-2.7,1.2-5.1,2.8-7,4.9c-1.9,2.1-3.4,4.5-4.4,7.3c-1,2.8-1.5,5.7-1.5,8.9c0,3.1,0.5,6.1,1.5,8.9c1,2.8,2.5,5.2,4.4,7.3
	s4.3,3.7,7,4.9c2.7,1.2,5.8,1.8,9.2,1.8c3.3,0,6.4-0.6,9.2-1.8c2.8-1.2,5.3-2.8,7.4-4.9c2.1-2.1,3.7-4.5,5-7.3
	C1044.5,452.3,1045.1,449.4,1045.1,446.2z"/>
<path class="st9" d="M1058.4,409.8h9.5l21.4,55.3l20.9-55.3h8.5l-25.3,64.3h-8.6L1058.4,409.8z"/>
<path class="st9" d="M1122.6,388.7c0-2,0.7-3.7,2.1-5.1c1.4-1.4,3.1-2.1,5.1-2.1c2,0,3.7,0.7,5.1,2.1c1.4,1.4,2.1,3.1,2.1,5.1
	c0,2-0.7,3.7-2.1,5.1c-1.4,1.4-3.1,2.1-5.1,2.1c-2,0-3.7-0.7-5.1-2.1C1123.2,392.4,1122.6,390.7,1122.6,388.7z"/>
<rect x="1124.8" y="409.8" class="st9" width="9.6" height="64.3"/>
<path class="st9" d="M1147.9,457.6c1.8,3.4,4.3,6,7.8,7.8c3.4,1.8,7,2.7,10.8,2.7c1.8,0,3.5-0.3,5.3-0.8c1.8-0.6,3.3-1.3,4.7-2.4
	c1.4-1,2.5-2.2,3.4-3.7c0.9-1.4,1.3-3.1,1.3-4.9c0-3-0.9-5.2-2.8-6.7c-1.9-1.5-4.2-2.6-7-3.5c-2.8-0.8-5.8-1.5-9.1-2.1
	c-3.3-0.6-6.4-1.5-9.1-2.8c-2.8-1.2-5.1-3-7-5.2c-1.9-2.2-2.8-5.4-2.8-9.4c0-3.1,0.6-5.9,1.9-8.2c1.3-2.3,3-4.2,5.1-5.8
	c2.1-1.5,4.4-2.7,7-3.4c2.6-0.7,5.2-1.1,7.9-1.1c5.3,0,9.8,1,13.7,2.9c3.8,1.9,6.8,5,8.9,9.1l-7.5,4.4c-1.6-3-3.5-5.2-5.9-6.7
	c-2.4-1.5-5.4-2.3-9.2-2.3c-1.5,0-3,0.2-4.6,0.7c-1.6,0.5-3.1,1.1-4.4,1.9c-1.3,0.8-2.4,1.9-3.3,3.2c-0.9,1.3-1.3,2.8-1.3,4.4
	c0,2.9,0.9,5,2.8,6.4c1.9,1.4,4.2,2.5,7,3.3c2.8,0.8,5.8,1.5,9.1,2s6.4,1.5,9.1,2.7c2.8,1.2,5.1,3,7,5.4c1.9,2.4,2.8,5.7,2.8,10
	c0,3.3-0.6,6.2-1.9,8.7c-1.2,2.4-3,4.5-5.1,6.2c-2.2,1.7-4.6,2.9-7.4,3.7c-2.8,0.8-5.7,1.2-8.7,1.2c-5.5,0-10.6-1.1-15.2-3.2
	c-4.6-2.1-8.1-5.4-10.6-9.8L1147.9,457.6z"/>
<path class="st9" d="M1193,442.7c0-4.8,0.8-9.2,2.3-13.2c1.5-4,3.6-7.5,6.4-10.4c2.7-2.9,6-5.2,9.8-6.8c3.8-1.6,8-2.4,12.5-2.4
	c4.5,0,8.6,0.8,12.4,2.4c3.8,1.6,7,3.9,9.8,6.8c2.8,2.9,4.9,6.4,6.4,10.4c1.5,4,2.3,8.4,2.3,13.2c0,4.8-0.8,9.2-2.3,13.2
	c-1.5,4-3.7,7.5-6.4,10.4c-2.8,2.9-6,5.2-9.8,6.8c-3.8,1.6-7.9,2.4-12.4,2.4c-4.5,0-8.6-0.8-12.5-2.4c-3.8-1.6-7.1-3.9-9.8-6.8
	c-2.7-2.9-4.8-6.4-6.4-10.4C1193.7,451.9,1193,447.5,1193,442.7z M1200.6,442.7c0,3.5,0.5,6.8,1.6,10c1.1,3.1,2.6,5.8,4.6,8.1
	c2,2.3,4.5,4.1,7.4,5.5c2.9,1.4,6.1,2,9.7,2c3.6,0,6.8-0.7,9.7-2c2.9-1.4,5.3-3.2,7.4-5.5c2-2.3,3.6-5,4.6-8.1
	c1.1-3.1,1.6-6.4,1.6-10c0-3.5-0.5-6.8-1.6-10c-1.1-3.1-2.6-5.8-4.6-8.1c-2-2.3-4.5-4.1-7.4-5.5c-2.9-1.4-6.1-2-9.7-2
	c-3.6,0-6.8,0.7-9.7,2c-2.9,1.4-5.3,3.2-7.4,5.5c-2,2.3-3.6,5-4.6,8.1C1201.1,435.8,1200.6,439.2,1200.6,442.7z"/>
<path class="st9" d="M1261.1,428.6c0-1.2,0-2.6-0.1-4.3c-0.1-1.7-0.2-3.4-0.2-5.1c0-1.7-0.1-3.4-0.2-4.9c-0.1-1.5-0.1-2.7-0.1-3.5
	h8.6c0.1,2.4,0.2,4.7,0.2,6.9c0,2.2,0.2,3.6,0.4,4.2c2.2-3.7,5-6.8,8.5-9.2c3.5-2.4,7.7-3.6,12.7-3.6c0.9,0,1.7,0.1,2.5,0.2
	c0.8,0.1,1.7,0.3,2.5,0.5l-1,8.1c-1.2-0.4-2.3-0.5-3.3-0.5c-3.7,0-7,0.6-9.7,1.7c-2.7,1.1-5,2.7-6.8,4.7c-1.8,2-3.1,4.4-4,7.1
	c-0.9,2.7-1.3,5.6-1.3,8.7v34.5h-8.6V428.6z"/>
</svg>
