<?xml version="1.0" encoding="UTF-8"?>
<svg id="Layer_2" data-name="Layer 2" xmlns="http://www.w3.org/2000/svg" viewBox="0 0 661.16 633.9">
  <defs>
    <style>
      .cls-1 {
        fill: #929497;
      }

      .cls-1, .cls-2, .cls-3, .cls-4, .cls-5, .cls-6, .cls-7, .cls-8, .cls-9, .cls-10, .cls-11 {
        stroke-width: 0px;
      }

      .cls-2 {
        fill: #5783b5;
      }

      .cls-3 {
        fill: #dbb142;
      }

      .cls-5 {
        fill: gray;
      }

      .cls-6 {
        fill: #2d64a2;
      }

      .cls-7 {
        fill: #fff;
      }

      .cls-8 {
        fill: #a88930;
      }

      .cls-9 {
        fill: #231f20;
      }

      .cls-10 {
        fill: #b42026;
      }

      .cls-11 {
        fill: #af5648;
      }
    </style>
  </defs>
  <g id="Layer_1-2" data-name="Layer 1">
    <g>
      <ellipse class="cls-7" cx="330.58" cy="316.95" rx="330.58" ry="316.95"/>
      <g>
        <ellipse class="cls-7" cx="334.78" cy="313.2" rx="224.81" ry="215.55"/>
        <g>
          <path class="cls-11" d="m522.8,78.6C388.35-22.31,194.03.38,88.78,129.29-16.47,258.19,7.2,444.5,141.65,545.41c134.45,100.91,328.76,78.22,434.01-50.69,105.25-128.91,81.58-315.21-52.87-416.12ZM203.59,472.9c-91.89-68.97-108.07-196.3-36.13-284.41,71.94-88.1,204.74-103.61,296.63-34.64,91.89,68.97,108.07,196.3,36.13,284.41-71.94,88.1-204.74,103.61-296.63,34.64Z"/>
          <path class="cls-10" d="m491.9,116.44C378.71,31.47,215.11,50.58,126.49,159.11c-88.61,108.53-68.69,265.39,44.51,350.35,113.2,84.96,276.8,65.85,365.41-42.68,88.61-108.53,68.69-265.39-44.51-350.35ZM203.59,472.9c-91.89-68.97-108.07-196.3-36.13-284.41,71.94-88.1,204.74-103.61,296.63-34.64,91.89,68.97,108.07,196.3,36.13,284.41-71.94,88.1-204.74,103.61-296.63,34.64Z"/>
          <g>
            <path class="cls-6" d="m522.78,78.59C388.73-22.02,195.02-.82,88.17,130.04c17.29-18.29,46.38-21.21,66.81-5.87,1.18.88,2.09,1.95,3.16,2.91,92.83-79.11,233.46-86.33,333.96-10.9,101.19,75.95,127.31,209.91,67.91,315.65-7.05,12.55-15.23,24.72-24.71,36.33-11.4,13.96-24.03,26.44-37.6,37.46,1.26,1.17,2.39,2.44,3.8,3.5,19.69,14.78,47.35,12.73,64.97-3.59,2.39-2.71,4.77-5.43,7.08-8.23.18-.22.37-.42.54-.63,107.64-131.83,83.15-317.15-51.31-418.06Z"/>
            <path class="cls-2" d="m560,431.82c59.4-105.74,33.29-239.7-67.91-315.65-100.49-75.43-241.13-68.2-333.96,10.9,17.51,15.76,22.22,42.96,8.63,62.27,72.8-87.49,203.31-104.61,294.68-36.03,91.67,68.81,109.36,197.8,37.43,286.6-.18.22-2.78,3.05-4.91,5.77-14.3,19.32-13.65,43.73,3.72,59.92,13.57-11.01,26.2-23.49,37.6-37.46,9.48-11.61,17.66-23.78,24.71-36.33Z"/>
          </g>
        </g>
        <g>
          <g>
            <path class="cls-4" d="m332.34,353.36c23.75,0,43.01-18.46,43.01-41.24,0-10.97-4.54-20.87-11.82-28.26l-50.97,64.67c5.95,2.98,12.61,4.83,19.79,4.83Z"/>
            <path class="cls-4" d="m332.34,270.89c-23.75,0-43.01,18.46-43.01,41.24,0,11.64,5.08,22.11,13.17,29.61l43.44-68.54c-4.3-1.38-8.82-2.31-13.6-2.31Z"/>
            <path class="cls-4" d="m367.2,279.2l62.94-79.84-26.37-17.39-54.65,86.21c6.86,2.42,13.04,6.13,18.08,11.03Z"/>
            <path class="cls-4" d="m239.22,441.57l69.71-88.44c-3.45-1.82-6.66-3.95-9.54-6.48l-60.17,94.92Z"/>
            <path class="cls-4" d="m345.94,273.2l-43.44,68.54c2.95,2.74,6.38,4.96,10.05,6.8l50.97-64.67c-4.79-4.86-10.82-8.49-17.58-10.67Z"/>
            <path class="cls-5" d="m363.52,283.86l3.68-4.67c-5.03-4.9-11.22-8.61-18.08-11.03l-3.18,5.02c6.76,2.18,12.79,5.81,17.58,10.67Z"/>
            <path class="cls-5" d="m302.5,341.73l-3.11,4.91c2.88,2.53,6.09,4.66,9.54,6.48l3.62-4.6c-3.67-1.84-7.1-4.06-10.05-6.8Z"/>
          </g>
          <ellipse class="cls-8" cx="332.34" cy="312.48" rx="28.42" ry="27.25"/>
          <path class="cls-3" d="m352.06,293.13c-8.94-8.57-22.31-10.12-32.99-4.88-.52.43-1.09.76-1.58,1.23-11.1,10.64-11.1,27.9,0,38.54,8.94,8.57,22.31,10.12,32.99,4.88.52-.43,1.09-.76,1.58-1.23,11.1-10.64,11.1-27.9,0-38.54Z"/>
        </g>
        <g>
          <g>
            <path class="cls-4" d="m332.44,353.6c23.75,0,43.01-18.46,43.01-41.24,0-10.97-4.54-20.87-11.82-28.26l-50.97,64.67c5.95,2.98,12.61,4.83,19.79,4.83Z"/>
            <path class="cls-4" d="m332.44,271.13c-23.75,0-43.01,18.46-43.01,41.24,0,11.64,5.08,22.11,13.17,29.61l43.44-68.54c-4.3-1.38-8.82-2.31-13.6-2.31Z"/>
            <path class="cls-4" d="m367.3,279.44l62.94-79.84-26.37-17.39-54.65,86.21c6.86,2.42,13.04,6.13,18.08,11.03Z"/>
            <path class="cls-4" d="m239.32,441.81l69.71-88.44c-3.45-1.82-6.66-3.95-9.54-6.48l-60.17,94.92Z"/>
            <path class="cls-4" d="m346.05,273.43l-43.44,68.54c2.95,2.74,6.38,4.96,10.05,6.8l50.97-64.67c-4.79-4.86-10.82-8.49-17.58-10.67Z"/>
            <path class="cls-5" d="m363.63,284.1l3.68-4.67c-5.03-4.9-11.22-8.61-18.08-11.03l-3.18,5.02c6.76,2.18,12.79,5.81,17.58,10.67Z"/>
            <path class="cls-5" d="m302.6,341.97l-3.11,4.91c2.88,2.53,6.09,4.66,9.54,6.48l3.62-4.6c-3.67-1.84-7.1-4.06-10.05-6.8Z"/>
          </g>
          <ellipse class="cls-8" cx="332.44" cy="312.72" rx="28.42" ry="27.25"/>
          <path class="cls-3" d="m352.17,293.37c-8.94-8.57-22.31-10.12-32.99-4.88-.52.43-1.09.76-1.58,1.23-11.1,10.64-11.1,27.9,0,38.54,8.94,8.57,22.31,10.12,32.99,4.88.52-.43,1.09-.76,1.58-1.23,11.1-10.64,11.1-27.9,0-38.54Z"/>
        </g>
        <path class="cls-1" d="m250.55,403.52l4.85-5.99c-.38-.33-2.11-1.57-2.48-1.9l4.51-4.32,6.11-6.05-1.45-1.29-3.96-3.8-10.64,10.19c-8.01-8.27-14.69-17.71-19.77-28.03l13.69-5.46-2.97-6.85-13.8,5.5c-4.63-11.33-7.33-23.56-7.77-36.35h14.5v-7.42h-14.5c.44-12.72,3.12-24.89,7.71-36.17l13.52,5.34,2.95-6.85-13.41-5.29c5.06-10.33,11.73-19.77,19.72-28.06l10.92,10.13,5.38-5.33-10.87-10.09c9.62-8.73,20.76-15.91,33.06-21.07l6.78,14.89,7.09-2.97-6.64-14.59c10.76-3.7,22.23-5.88,34.19-6.33l-.1,16.3,7.73.04.1-16.4c12.66.34,24.77,2.71,36.1,6.69l4.12-6.5c-13.54-4.94-28.16-7.77-43.48-7.77-67.71,0-122.79,52.81-122.79,117.73,0,34.8,16.5,66.48,41.62,88.05Z"/>
        <g>
          <path class="cls-1" d="m355.35,423.31c-6.66,1.34-13.51,2.14-20.54,2.32l.28-15.12-7.73-.13-.28,15.17c-12.69-.49-24.84-2.94-36.16-7.07l6.11-13.54-7.1-2.94-6.14,13.62c-2.14-.94-4.64-2.65-6.71-3.71l-4.99,6.33c17.53,9.26,38.24,14.96,59.63,14.96,8.63,0,17.04-.88,25.17-2.51l-1.54-7.38Z"/>
          <path class="cls-1" d="m422.21,275.45l3.05,6.81,13.96-5.74c4.44,11.23,7.02,23.3,7.4,35.91l-16.43-.18-.09,7.42,16.45.18c-.53,12.31-3.12,24.11-7.52,35.08l-15.05-6.13-3.03,6.82,15.06,6.14c-2.54,5.25-5.54,10.24-8.87,15l6.72,3.93c13.02-18.68,20.64-41.1,20.64-65.21,0-32.15-13.54-61.31-35.41-82.58l-4.57,5.86c8.53,8.69,16.47,19.94,21.73,30.92l-14.04,5.78Z"/>
        </g>
        <path class="cls-9" d="m367.23,479.72c-9.66,1.83-19.58,2.95-29.73,3.21l.43-23.39-11.97-.2-.43,23.47c-19.64-.76-38.44-4.54-55.95-10.94l9.45-20.96-10.99-4.55-9.5,21.08c-17.67-7.81-33.76-18.28-47.75-30.93l16.51-15.81-8.46-8.11-16.46,15.76c-12.39-12.8-22.72-27.39-30.59-43.36l21.18-8.44-4.59-10.6-21.36,8.51c-7.16-17.54-11.33-36.45-12.03-56.24h22.43v-11.47h-22.43c.69-19.68,4.83-38.51,11.92-55.97l20.92,8.26,4.56-10.6-20.75-8.19c7.83-15.99,18.15-30.59,30.52-43.42l16.89,15.68,8.32-8.25-16.82-15.61c14.89-13.5,32.12-24.62,51.15-32.59l10.48,23.04,10.97-4.59-10.28-22.57c16.65-5.72,34.4-9.1,52.91-9.79l-.16,25.22,11.97.07.16-25.38c20.9.57,40.88,4.58,59.39,11.51l-9.66,22.12,11.04,4.44,9.61-22c16.79,7.58,32.13,17.56,45.56,29.54l-16.24,15.91,8.55,8.02,16.18-15.85c13.19,13.44,24.12,28.9,32.24,45.88l-21.73,8.94,4.72,10.53,21.6-8.89c6.87,17.37,10.86,36.05,11.45,55.57l-25.42-.28-.14,11.47,25.45.28c-.81,19.05-4.82,37.31-11.64,54.28l-23.29-9.49-4.69,10.56,23.3,9.5c-3.92,8.08-8.5,15.79-13.62,23.12l10.37,6.06c20.1-28.89,31.86-63.53,31.86-100.79,0-100.44-85.23-182.15-189.99-182.15s-189.99,81.71-189.99,182.15,85.23,182.15,189.99,182.15c12.63,0,24.95-1.25,36.9-3.51l-2.38-11.4Z"/>
      </g>
    </g>
  </g>
</svg>