<?xml version="1.0" encoding="UTF-8"?>
<svg id="news-icon" data-name="News Icon" xmlns="http://www.w3.org/2000/svg" viewBox="0 0 177.72 93.08" aria-hidden="true">
  <defs>
    <style>
    <!--cut and paste this part into styles.css to avoid bloat IMPORTANT - fill and stroke must be same color on this one-->
      .news-icon {      
        fill: black;
        stroke: black;
        stroke-miterlimit: 10;
        stroke-width: 3px;
      }
    </style>
  </defs>
    <g>
      <path class="news-icon" d="m52.9,65.37h-31.82c-11.62,0-21.08-9.46-21.08-21.08s9.46-21.08,21.08-21.08h31.82c1.04,0,1.88.84,1.88,1.88v38.41c0,1.04-.84,1.88-1.88,1.88ZM21.08,26.97c-9.55,0-17.33,7.77-17.33,17.33s7.77,17.33,17.33,17.33h29.95V26.97h-29.95Z"/>
      <path class="news-icon" d="m110.5,88.59c-.42,0-.84-.14-1.18-.42l-6.38-5.14c-14.13-11.39-31.9-17.66-50.05-17.66-1.04,0-1.88-.84-1.88-1.88V25.09c0-1.04.84-1.88,1.88-1.88,18.15,0,35.92-6.27,50.05-17.66l6.38-5.14c.56-.45,1.33-.54,1.99-.23.65.31,1.07.97,1.07,1.69v84.83c0,.72-.42,1.38-1.07,1.69-.26.12-.53.18-.81.18Zm-55.72-26.94c18.35.42,36.22,6.94,50.53,18.47l3.32,2.68V5.8l-3.32,2.68c-14.31,11.53-32.18,18.05-50.53,18.47v34.7Z"/>
      <path class="news-icon" d="m27.89,93.08c-2.76,0-5.33-1.37-6.86-3.67-1.54-2.3-1.82-5.19-.76-7.74l7.82-18.89c.29-.7.97-1.16,1.73-1.16h13.81c.63,0,1.21.31,1.56.83.35.52.41,1.18.17,1.76l-9.84,23.77c-1.28,3.1-4.27,5.1-7.63,5.1Zm3.18-27.71l-7.34,17.74c-.58,1.41-.43,2.95.42,4.22.85,1.27,2.21,2,3.74,2,1.83,0,3.46-1.09,4.16-2.78l8.77-21.18h-9.75Z"/>
      <path class="news-icon" d="m110.5,60.3c-1.04,0-1.88-.84-1.88-1.88v-28.27c0-1.04.84-1.88,1.88-1.88,8.35,0,15.15,6.79,15.15,15.14v1.73c0,8.35-6.79,15.14-15.15,15.14Zm1.88-28.11v24.2c5.39-.9,9.52-5.6,9.52-11.24v-1.73c0-5.64-4.12-10.34-9.52-11.24Z"/>
    </g>
    <line class="news-icon" x1="135.19" y1="30.09" x2="177.06" y2="9.59"/>
    <line class="news-icon" x1="137.23" y1="41.62" x2="177.06" y2="41.62"/>
    <line class="news-icon" x1="137.23" y1="55.49" x2="177.06" y2="67.61"/>
</svg>