<?xml version="1.0" encoding="UTF-8"?>
<svg id="review-icon" data-name="Review Icon" xmlns="http://www.w3.org/2000/svg" viewBox="0 0 129.45 113.99" aria-hidden="true">
  <g>
      <g>
        <path class="reviews-icon" d="m109.34,113.99s-.08,0-.13,0l-46.68-.57c-2.73-.03-5.39-1.06-7.69-2.97-.61-.51-1.43-.89-2.44-1.15-2.47-.63-4.19-2.82-4.19-5.32v-50.16c0-.95.25-1.89.72-2.72l12.25-21.46c2.79-4.89,4.72-10.18,5.73-15.73l1.14-6.27c.1-.81.93-5.99,5.88-7.34.76-.21,1.58-.3,2.44-.3,4.75.06,8.56,5.73,11.32,16.84.9,3.63,1.03,7.34.39,11.03l-3.2,18.35,34.26.42c5.58.07,10.2,4.51,10.29,9.89.05,2.75-.99,5.34-2.93,7.29-.85.85-1.82,1.53-2.87,2.03,1.58,1.82,2.48,4.2,2.45,6.72-.05,3.99-2.42,7.41-5.81,9,1.58,1.83,2.49,4.2,2.46,6.73-.05,3.99-2.42,7.41-5.81,9,1.58,1.83,2.49,4.2,2.46,6.73-.07,5.51-4.57,9.95-10.07,9.95ZM76.26,3.75c-.48,0-.93.06-1.33.17-2.78.76-3.14,4.14-3.14,4.17,0,.05-.01.11-.02.16l-1.15,6.33c-1.09,5.96-3.16,11.65-6.16,16.92l-12.25,21.46c-.15.26-.23.56-.23.86v50.16c0,.79.56,1.48,1.37,1.69,1.55.4,2.86,1.04,3.9,1.9,1.64,1.36,3.48,2.09,5.34,2.11l46.68.57c3.48.04,6.36-2.76,6.4-6.25.03-2.56-1.47-4.87-3.82-5.89-.82-.35-1.28-1.24-1.09-2.11.19-.87.97-1.49,1.86-1.49,3.49.04,6.36-2.76,6.4-6.24.03-2.56-1.47-4.87-3.82-5.89-.82-.35-1.28-1.24-1.09-2.11.19-.87.96-1.51,1.86-1.48,3.49.04,6.36-2.76,6.4-6.25.03-2.56-1.47-4.87-3.82-5.89-.82-.35-1.28-1.24-1.09-2.11.19-.87.97-1.51,1.86-1.48,1.72.02,3.34-.64,4.56-1.87,1.22-1.22,1.87-2.85,1.84-4.58-.06-3.38-3.02-6.16-6.59-6.21l-36.3-.45c-.55,0-1.07-.25-1.42-.68-.35-.42-.63-1.14-.54-1.68l3.55-20.37c.55-3.17.44-6.36-.34-9.48-2.14-8.6-5.1-13.97-7.73-14-.03,0-.05,0-.08,0Z"/>
        <path class="reviews-icon" d="m5.53,112.53c-1.43,0-2.78-.55-3.8-1.54-1.03-1.01-1.61-2.35-1.61-3.78L0,51.37c0-1.43.56-2.78,1.59-3.79,1.02-1,2.37-1.55,3.81-1.56l30.69-.06h0c1.43-.02,2.79.54,3.82,1.54,1.03,1.01,1.61,2.35,1.61,3.78l.11,55.84c0,1.43-.56,2.78-1.59,3.79-1.02,1-2.37,1.55-3.81,1.56l-30.69.06h-.01Zm30.57-62.82l-30.69.06c-.45,0-.87.17-1.19.48-.3.3-.47.69-.47,1.11l.11,55.84c0,.41.17.81.48,1.1.32.31.71.5,1.19.48l30.69-.06c.45,0,.87-.17,1.19-.48.3-.3.47-.69.47-1.11l-.11-55.84c0-.41-.17-.81-.48-1.1-.32-.31-.75-.48-1.19-.48h0Z"/>
      </g>
      <path class="reviews-icon" d="m119.28,66.8h-16.14c-1.04,0-1.88-.84-1.88-1.88s.84-1.88,1.88-1.88h16.14c1.04,0,1.88.84,1.88,1.88s-.84,1.88-1.88,1.88Z"/>
      <path class="reviews-icon" d="m115.94,82.52h-16.14c-1.04,0-1.88-.84-1.88-1.88s.84-1.88,1.88-1.88h16.14c1.04,0,1.88.84,1.88,1.88s-.84,1.88-1.88,1.88Z"/>
      <path class="reviews-icon" d="m112.58,98.26h-16.14c-1.04,0-1.88-.84-1.88-1.88s.84-1.88,1.88-1.88h16.14c1.04,0,1.88.84,1.88,1.88s-.84,1.88-1.88,1.88Z"/>
    </g>
</svg>