<?xml version="1.0" encoding="UTF-8"?>
<svg id="story-icon" data-name="Story Icon" xmlns="http://www.w3.org/2000/svg" viewBox="0 0 93.65 123.43" aria-hidden="true">
      <g>
        <path class="story-icon" d="m23.18,25.05H1.88c-.76,0-1.44-.46-1.73-1.16-.29-.7-.13-1.51.41-2.04L21.85.55c.54-.54,1.34-.7,2.04-.41.7.29,1.16.97,1.16,1.73v21.3c0,1.04-.84,1.88-1.88,1.88Zm-16.77-3.75h14.9V6.4l-14.9,14.9Z"/>
        <path class="story-icon" d="m91.78,123.43H1.88C.84,123.43,0,122.59,0,121.55V23.18c0-.5.2-.97.55-1.33L21.85.55C22.2.2,22.68,0,23.18,0h68.6c1.04,0,1.88.84,1.88,1.88v119.68c0,1.04-.84,1.88-1.88,1.88Zm-88.03-3.75h86.15V3.75H23.95L3.75,23.96v95.72Z"/>
      </g>
      <g>
        <path class="story-icon" d="m75.51,39.8h-40.43c-1.04,0-1.88-.84-1.88-1.88s.84-1.88,1.88-1.88h40.43c1.04,0,1.88.84,1.88,1.88s-.84,1.88-1.88,1.88Z"/>
        <path class="story-icon" d="m75.51,61.12H18.14c-1.04,0-1.88-.84-1.88-1.88s.84-1.88,1.88-1.88h57.38c1.04,0,1.88.84,1.88,1.88s-.84,1.88-1.88,1.88Z"/>
        <path class="story-icon" d="m75.51,82.43H18.14c-1.04,0-1.88-.84-1.88-1.88s.84-1.88,1.88-1.88h57.38c1.04,0,1.88.84,1.88,1.88s-.84,1.88-1.88,1.88Z"/>
        <path class="story-icon" d="m54.69,103.75H18.14c-1.04,0-1.88-.84-1.88-1.88s.84-1.88,1.88-1.88h36.55c1.04,0,1.88.84,1.88,1.88s-.84,1.88-1.88,1.88Z"/>
      </g>
</svg>